<svg xmlns="http://www.w3.org/2000/svg" class="ico-svg search-inspiration__ico" width="14" height="14" viewBox="0 0 14 14">
															<path d="M0.5 8C0.776142 8 1 8.22386 1 8.5C1 8.63261 1.05268 8.75978 1.14645 8.85355C1.24022 8.94732 1.36739 9 1.5 9C1.77614 9 2 9.22386 2 9.5C2 9.77614 1.77614 10 1.5 10C1.10217 10 0.720644 9.84196 0.43934 9.56066C0.158035 9.27936 0 8.89782 0 8.5C0 8.22386 0.223858 8 0.5 8Z M0.43934 0.43934C0.720644 0.158035 1.10218 0 1.5 0C1.77614 0 2 0.223858 2 0.5C2 0.776142 1.77614 1 1.5 1C1.36739 1 1.24021 1.05268 1.14645 1.14645C1.05268 1.24021 1 1.36739 1 1.5C1 1.77614 0.776142 2 0.5 2C0.223858 2 0 1.77614 0 1.5C0 1.10218 0.158035 0.720644 0.43934 0.43934Z M8 0.5C8 0.223858 8.22386 0 8.5 0C8.89782 0 9.27936 0.158035 9.56066 0.43934C9.84196 0.720644 10 1.10217 10 1.5C10 1.77614 9.77614 2 9.5 2C9.22386 2 9 1.77614 9 1.5C9 1.36739 8.94732 1.24022 8.85355 1.14645C8.75978 1.05268 8.63261 1 8.5 1C8.22386 1 8 0.776142 8 0.5Z M3.5 0.5C3.5 0.223858 3.72386 0 4 0H6C6.27614 0 6.5 0.223858 6.5 0.5C6.5 0.776142 6.27614 1 6 1H4C3.72386 1 3.5 0.776142 3.5 0.5Z M0.5 3.5C0.776142 3.5 1 3.72386 1 4V6C1 6.27614 0.776142 6.5 0.5 6.5C0.223858 6.5 0 6.27614 0 6V4C0 3.72386 0.223858 3.5 0.5 3.5Z M9 4.5C9 4.22386 9.22386 4 9.5 4H12.5C12.8978 4 13.2794 4.15804 13.5607 4.43934C13.842 4.72064 14 5.10217 14 5.5V12.5C14 12.8978 13.842 13.2794 13.5607 13.5607C13.2794 13.842 12.8978 14 12.5 14H5.5C5.10217 14 4.72064 13.842 4.43934 13.5607C4.15804 13.2794 4 12.8978 4 12.5V9.5C4 9.22386 4.22386 9 4.5 9H8.5C8.63261 9 8.75979 8.94732 8.85355 8.85355C8.94732 8.75979 9 8.63261 9 8.5V4.5ZM10 5V8.5C10 8.89783 9.84196 9.27936 9.56066 9.56066C9.27936 9.84196 8.89783 10 8.5 10H5V12.5C5 12.6326 5.05268 12.7598 5.14645 12.8536C5.24022 12.9473 5.36739 13 5.5 13H12.5C12.6326 13 12.7598 12.9473 12.8536 12.8536C12.9473 12.7598 13 12.6326 13 12.5V5.5C13 5.36739 12.9473 5.24022 12.8536 5.14645C12.7598 5.05268 12.6326 5 12.5 5H10Z"/>
															</svg>