<svg xmlns="http://www.w3.org/2000/svg" class="ico-svg search-inspiration__ico" width="11" height="15" viewBox="0 0 11 15">
															<path d="M3.9929 0.625939C4.13088 0.54352 4.2886 0.5 4.44931 0.5C4.59954 0.5 4.74714 0.538023 4.87845 0.610295C8.87544 2.46727 11.1385 6.32323 10.9988 9.54683L10.9988 9.54716C10.9392 10.902 10.4542 12.1551 9.51453 13.0708C8.57487 13.9865 7.2248 14.5218 5.51533 14.5252C4.82872 14.5675 4.14047 14.4731 3.49048 14.2476C2.83534 14.0202 2.2323 13.6641 1.71685 13.2001C1.20139 12.7362 0.783938 12.1739 0.489046 11.5463C0.194154 10.9186 0.027783 10.2383 -0.000275804 9.54542L-0.000578149 9.53795L-0.000522329 9.53795C-0.0209942 8.73621 0.178555 7.94417 0.57646 7.24784C0.974365 6.55151 1.55542 5.97748 2.25655 5.58808C2.37945 5.51982 2.52542 5.50645 2.65867 5.55126C2.79193 5.59607 2.90017 5.69491 2.95686 5.82356C3.20152 6.37877 3.54425 6.88378 3.96732 7.31498C4.46391 6.66783 4.69233 5.83147 4.68558 4.91261C4.67754 3.81878 4.33395 2.64717 3.75882 1.64956C3.66486 1.49271 3.63053 1.30715 3.66234 1.1269C3.69467 0.943739 3.79303 0.77879 3.93881 0.663287C3.956 0.649664 3.97407 0.637188 3.9929 0.625939ZM4.94165 1.7577C5.40397 2.74496 5.67775 3.84365 5.68555 4.90526C5.69502 6.19406 5.31016 7.46724 4.34414 8.38726C4.15969 8.56293 3.87265 8.57185 3.67764 8.40797C3.12295 7.94184 2.65822 7.38047 2.30441 6.75183C1.95725 7.02235 1.66472 7.35895 1.4447 7.74398C1.13805 8.28062 0.98396 8.89087 0.999059 9.50871C1.02217 10.0671 1.15648 10.6152 1.39413 11.121C1.63231 11.628 1.96949 12.0822 2.38581 12.4569C2.80214 12.8315 3.28921 13.1192 3.81836 13.3028C4.34751 13.4865 4.90805 13.5624 5.46699 13.5262C5.47775 13.5255 5.48853 13.5252 5.49931 13.5252C7.00226 13.5252 8.09169 13.061 8.8166 12.3546C9.54444 11.6453 9.94941 10.6483 9.9998 9.50321C10.1142 6.86049 8.3102 3.53981 4.94165 1.7577ZM7.99932 9.02519C8.27546 9.02519 8.49932 9.24904 8.49932 9.52519C8.49932 10.1882 8.23592 10.8241 7.76708 11.293C7.29824 11.7618 6.66236 12.0252 5.99931 12.0252C5.72317 12.0252 5.49931 11.8013 5.49931 11.5252C5.49931 11.249 5.72317 11.0252 5.99931 11.0252C6.39714 11.0252 6.77867 10.8672 7.05997 10.5858C7.34128 10.3045 7.49931 9.92301 7.49931 9.52519C7.49931 9.24904 7.72317 9.02519 7.99932 9.02519Z"/>
															</svg>