<svg xmlns="http://www.w3.org/2000/svg" class="ico-svg search-inspiration__ico" width="14" height="14" viewBox="0 0 14 14">
															<path d="M13.5 11C13.7761 11 14 11.2239 14 11.5V12.5C14 12.8978 13.842 13.2794 13.5607 13.5607C13.2794 13.842 12.8978 14 12.5 14H11.5C11.2239 14 11 13.7761 11 13.5C11 13.2239 11.2239 13 11.5 13H12.5C12.6326 13 12.7598 12.9473 12.8536 12.8536C12.9473 12.7598 13 12.6326 13 12.5V11.5C13 11.2239 13.2239 11 13.5 11Z M13.5 4C13.7761 4 14 4.22386 14 4.5V8.5C14 8.77614 13.7761 9 13.5 9C13.2239 9 13 8.77614 13 8.5V4.5C13 4.22386 13.2239 4 13.5 4Z M5 13.5C5 13.2239 5.22386 13 5.5 13H8.5C8.77614 13 9 13.2239 9 13.5C9 13.7761 8.77614 14 8.5 14H5.5C5.22386 14 5 13.7761 5 13.5Z M1.5 1C1.36739 1 1.24021 1.05268 1.14645 1.14645C1.05268 1.24021 1 1.36739 1 1.5V12.5C1 12.7761 0.776142 13 0.5 13C0.223858 13 0 12.7761 0 12.5V1.5C0 1.10218 0.158035 0.720644 0.43934 0.43934C0.720644 0.158035 1.10218 0 1.5 0H12.5C12.7761 0 13 0.223858 13 0.5C13 0.776142 12.7761 1 12.5 1H1.5Z"/>
															</svg>