<svg xmlns="http://www.w3.org/2000/svg" class="ico-svg search-inspiration__ico" width="14" height="14" viewBox="0 0 14 14">
															<path d="M7 1C3.68629 1 1 3.68629 1 7C1 10.3137 3.68629 13 7 13C7.27614 13 7.5 13.2239 7.5 13.5C7.5 13.7761 7.27614 14 7 14C3.13401 14 0 10.866 0 7C0 3.13401 3.13401 0 7 0C10.866 0 14 3.13401 14 7C14 7.27614 13.7761 7.5 13.5 7.5C13.2239 7.5 13 7.27614 13 7C13 3.68629 10.3137 1 7 1Z M13.3237 8.59131C13.5856 8.679 13.7268 8.96235 13.6391 9.2242C13.5505 9.48866 13.4466 9.74606 13.3284 9.99533C13.2101 10.2449 12.912 10.3512 12.6624 10.2329C12.4129 10.1146 12.3065 9.81647 12.4248 9.56695C12.5261 9.35345 12.615 9.13305 12.6908 8.90666C12.7785 8.64481 13.0619 8.50362 13.3237 8.59131ZM12.3707 10.6962C12.5854 10.8699 12.6186 11.1847 12.445 11.3994C12.0963 11.8305 11.6975 12.2192 11.2574 12.5569C11.0383 12.725 10.7244 12.6837 10.5563 12.4646C10.3882 12.2455 10.4296 11.9316 10.6487 11.7635C11.0262 11.4739 11.3684 11.1403 11.6675 10.7705C11.8412 10.5558 12.156 10.5226 12.3707 10.6962ZM10.0856 12.7443C10.1974 12.9968 10.0833 13.2921 9.83081 13.4038C9.57865 13.5155 9.31864 13.6127 9.05183 13.6943C8.78778 13.7752 8.5082 13.6267 8.42736 13.3626C8.34652 13.0986 8.49504 12.819 8.75908 12.7381C8.98748 12.6682 9.2101 12.585 9.42604 12.4894C9.67855 12.3777 9.97386 12.4917 10.0856 12.7443Z"/>
															</svg>