<svg class="card-awwward-mini__bg" width="84" height="96" viewBox="0 0 84 96" fill="none" xmlns="http://www.w3.org/2000/svg">
            <path d="M17.027 94.651C16.5705 93.8604 15.4293 93.8604 14.9728 94.651L14.194 96L7.42772 96L6.6489 94.651C6.19242 93.8604 5.05121 93.8604 4.59472 94.651L3.8159 96L0.000236511 96L0.000244904 2.85881e-07L84.0003 7.62939e-06L84.0002 96L80.0716 96L79.2928 94.651C78.8363 93.8604 77.6951 93.8604 77.2386 94.651L76.4598 96L69.6936 96L68.9147 94.651C68.4583 93.8604 67.317 93.8604 66.8606 94.651L66.0817 96L59.3155 96L58.5366 94.651C58.0802 93.8604 56.9389 93.8604 56.4825 94.651L55.7036 96L48.9374 96L48.1586 94.651C47.7021 93.8604 46.5609 93.8604 46.1044 94.651L45.3256 96L38.5593 96L37.7805 94.651C37.324 93.8604 36.1828 93.8604 35.7263 94.651L34.9475 96L28.1839 96L27.4051 94.651C26.9486 93.8604 25.8074 93.8604 25.3509 94.651L24.5721 96L17.8058 96L17.027 94.651Z"/>
        </svg>