<svg xmlns="http://www.w3.org/2000/svg" class="ico-svg search-inspiration__ico" width="14" height="6" viewBox="0 0 14 6">
															<path d="M0 1.5C0 0.947715 0.447715 0.5 1 0.5H5C5.55228 0.5 6 0.947715 6 1.5V4.5C6 5.05228 5.55228 5.5 5 5.5H1C0.447715 5.5 0 5.05228 0 4.5V1.5ZM5 1.5H1V4.5H5V1.5Z M7.5 1.5C7.5 0.947715 7.94772 0.5 8.5 0.5H10.5C11.0523 0.5 11.5 0.947715 11.5 1.5V4.5C11.5 5.05228 11.0523 5.5 10.5 5.5H8.5C7.94772 5.5 7.5 5.05228 7.5 4.5V1.5ZM10.5 1.5H8.5V4.5H10.5V1.5Z M13.5 0.5C13.7761 0.5 14 0.723858 14 1V5C14 5.27614 13.7761 5.5 13.5 5.5C13.2239 5.5 13 5.27614 13 5V1C13 0.723858 13.2239 0.5 13.5 0.5Z"/>
															</svg>