<svg xmlns="http://www.w3.org/2000/svg" class="ico-svg search-inspiration__ico" width="14" height="14" viewBox="0 0 14 14">
															<path d="M11.9687 0.314283C12.237 0.379853 12.4013 0.650464 12.3357 0.918709L12.1157 1.81871C12.0501 2.08695 11.7795 2.25125 11.5113 2.18568C11.243 2.12011 11.0787 1.8495 11.1443 1.58126L11.3643 0.681255C11.4299 0.413011 11.7005 0.248712 11.9687 0.314283ZM1.80992 0.499794C2.06959 0.405868 2.35625 0.540236 2.45017 0.799914L2.79017 1.73991C2.8841 1.99959 2.74973 2.28624 2.49005 2.38017C2.23038 2.4741 1.94372 2.33973 1.8498 2.08005L1.5098 1.14005C1.41587 0.880372 1.55024 0.59372 1.80992 0.499794ZM9.72484 1.88893C9.92977 1.70384 10.2459 1.71991 10.431 1.92484L11.326 2.91575L12.5903 2.45965C12.8501 2.36594 13.1366 2.50055 13.2303 2.76031C13.324 3.02006 13.1894 3.3066 12.9297 3.40031L11.3497 3.97031C11.1587 4.03921 10.945 3.98579 10.8089 3.83513L9.68893 2.59513C9.50384 2.3902 9.51992 2.07403 9.72484 1.88893ZM4.36866 1.93899C4.59012 2.10394 4.63593 2.41719 4.47098 2.63865L3.39098 4.08865C3.27089 4.24989 3.06591 4.32351 2.87068 4.27554L1.12068 3.84554C0.852511 3.77965 0.688536 3.50884 0.754428 3.24067C0.82032 2.97251 1.09113 2.80853 1.35929 2.87443L2.78715 3.22527L3.66899 2.04131C3.83394 1.81985 4.14719 1.77404 4.36866 1.93899ZM9.16484 4.13893C9.36977 3.95384 9.68594 3.96991 9.87104 4.17484L10.766 5.16575L12.0303 4.70965C12.2901 4.61594 12.5766 4.75055 12.6703 5.01031C12.764 5.27006 12.6294 5.5566 12.3697 5.65031L10.7897 6.22031C10.5987 6.28921 10.385 6.23579 10.2489 6.08512L9.12893 4.84513C8.94384 4.6402 8.95992 4.32403 9.16484 4.13893ZM5.2082 4.29865C5.42985 4.46335 5.47602 4.77654 5.31132 4.9982L4.24132 6.4382C4.12129 6.59973 3.91611 6.67356 3.72068 6.62554L1.97068 6.19554C1.70251 6.12965 1.53854 5.85884 1.60443 5.59067C1.67032 5.32251 1.94113 5.15853 2.20929 5.22442L3.63675 5.57517L4.50865 4.40177C4.67335 4.18012 4.98655 4.13395 5.2082 4.29865ZM8.60484 6.38893C8.80977 6.20384 9.12594 6.21991 9.31104 6.42484L10.206 7.41575L11.4703 6.95965C11.7301 6.86594 12.0166 7.00055 12.1103 7.26031C12.204 7.52006 12.0694 7.8066 11.8097 7.90031L10.2297 8.47031C10.0387 8.53921 9.82502 8.48579 9.68893 8.33512L8.56893 7.09513C8.38384 6.8902 8.39992 6.57403 8.60484 6.38893ZM6.05866 6.64899C6.28012 6.81394 6.32593 7.12719 6.16098 7.34865L5.08098 8.79865C4.9603 8.96067 4.75399 9.03415 4.55807 8.98489L2.80807 8.54489C2.54026 8.47756 2.37774 8.20587 2.44508 7.93806C2.51241 7.67026 2.7841 7.50774 3.0519 7.57507L4.47831 7.93371L5.35899 6.75131C5.52394 6.52985 5.83719 6.48404 6.05866 6.64899ZM8.0432 8.64042C8.24731 8.45442 8.56355 8.4691 8.74955 8.6732L9.65542 9.66725L10.912 9.21904C11.1721 9.12627 11.4582 9.26191 11.5509 9.522C11.6437 9.7821 11.5081 10.0681 11.248 10.1609L9.93044 10.6309L9.43518 12.6207C9.36849 12.8887 9.09719 13.0519 8.82922 12.9852C8.56126 12.9185 8.39809 12.6472 8.46479 12.3792L8.96015 10.3889L8.01042 9.34676C7.82442 9.14266 7.8391 8.82642 8.0432 8.64042ZM6.89687 8.99766C7.11906 9.16163 7.16627 9.47467 7.0023 9.69687L6.09047 10.9325L6.84081 13.0317C6.93376 13.2917 6.79831 13.5779 6.53828 13.6708C6.27825 13.7638 5.99211 13.6283 5.89916 13.3683L5.14964 11.2714L3.66068 10.9055C3.39251 10.8396 3.22854 10.5688 3.29443 10.3007C3.36032 10.0325 3.63113 9.86853 3.89929 9.93443L5.32559 10.2849L6.19767 9.1031C6.36163 8.8809 6.67467 8.8337 6.89687 8.99766Z"/>
															</svg>